Coordinates
version=1
nRows=8
nColumns=40
inDegrees=yes

Units are S.I. units (second, meters, Newtons, ...)
Angles are in degrees.

endheader
time	pelvis_tilt	pelvis_list	pelvis_rotation	pelvis_tx	pelvis_ty	pelvis_tz	hip_flexion_r	hip_adduction_r	hip_rotation_r	knee_angle_r	knee_angle_r_beta	ankle_angle_r	subtalar_angle_r	mtp_angle_r	hip_flexion_l	hip_adduction_l	hip_rotation_l	knee_angle_l	knee_angle_l_beta	ankle_angle_l	subtalar_angle_l	mtp_angle_l	lumbar_extension	lumbar_bending	lumbar_rotation	arm_flex_r	arm_add_r	arm_rot_r	elbow_flex_r	pro_sup_r	wrist_flex_r	wrist_dev_r	arm_flex_l	arm_add_l	arm_rot_l	elbow_flex_l	pro_sup_l	wrist_flex_l	wrist_dev_l
      0.68000000	     -3.45817685	     -2.17371537	      4.05968223	     -0.60451372	      0.89382478	      1.12358659	     16.36881355	      2.13610672	    -15.71176603	    -24.72160867	     -0.43147347	      8.34632383	     -3.06584076	      4.85216788	     20.03998940	      5.99687087	      2.07701288	    -64.49217812	     -1.12560085	      3.71349561	     17.81518187	     12.86209384	     -2.10097249	      2.76310023	     -3.96121511	      0.51316242	    -10.01828446	    -17.75719688	     24.94099518	     89.95437384	      0.00000000	      0.00000000	     -0.00440774	      8.23604006	     18.18717553	     33.07957395	     89.95437384	      0.00000000	      0.00000000
      0.69000000	     -3.37002056	     -2.12927069	      3.92038488	     -0.59828141	      0.89434166	      1.12474590	     15.62694353	      2.26368643	    -15.70476072	    -24.36099952	     -0.42517965	      8.63761809	     -2.84544895	      4.73203152	     20.91677839	      5.99090568	      2.46289054	    -64.48519288	     -1.12547893	      4.65973581	     18.01652106	     12.82103359	     -2.23090711	      2.70123183	     -3.63911464	      0.86441647	    -10.14198365	    -17.89651932	     25.08446011	     89.95437384	      0.00000000	      0.00000000	     -0.29175822	      8.13205714	     18.18590251	     32.53367134	     89.95437384	      0.00000000	      0.00000000
      0.70000000	     -3.32532357	     -2.05805542	      3.78525421	     -0.59203478	      0.89478352	      1.12586994	     14.93921192	      2.32182581	    -15.81643752	    -24.03010600	     -0.41940447	      8.93772082	     -2.71630589	      4.62924710	     21.82807637	      5.99133559	      2.93653193	    -64.27637190	     -1.12183432	      5.39495678	     18.21983075	     12.77983426	     -2.30492801	      2.60544198	     -3.35888116	      1.19415049	    -10.23815909	    -17.97481230	     25.26921102	     89.95437384	      0.00000000	      0.00000000	     -0.66044156	      8.04070929	     18.16959615	     32.07937408	     89.95437384	      0.00000000	      0.00000000
      0.71000000	     -3.17261106	     -2.06939293	      3.69131109	     -0.58574185	      0.89538689	      1.12691555	     14.06818554	      2.54116917	    -15.63394394	    -23.55571566	     -0.41112480	      9.26890924	     -2.29194884	      4.46597459	     22.55205211	      6.04240512	      3.29746141	    -63.89799636	     -1.11523042	      6.56313030	     18.41565292	     12.96055925	     -2.49749534	      2.60639096	     -3.09160429	      1.51562574	    -10.31692974	    -18.26977728	     25.52174196	     89.95437384	      0.00000000	      0.00000000	     -0.93953970	      7.94770245	     18.19179968	     31.50097801	     89.95437384	      0.00000000	      0.00000000
      0.72000000	     -3.21226932	     -2.00415132	      3.62210583	     -0.57971814	      0.89562687	      1.12793179	     13.55176985	      2.57344310	    -15.82562649	    -23.36762537	     -0.40784200	      9.43504992	     -2.27151956	      4.39076835	     23.52781879	      6.04431287	      3.75443577	    -63.31467573	     -1.10504956	      6.89286928	     18.50495481	     12.90956274	     -2.50551658	      2.49694898	     -2.93471623	      1.82911404	    -10.40307241	    -18.28318597	     25.80911590	     89.95437384	      0.00000000	      0.00000000	     -1.38104756	      7.91864515	     18.13578448	     31.19236689	     89.95437384	      0.00000000	      0.00000000
      0.73000000	     -3.25067161	     -1.98266941	      3.56879247	     -0.57341527	      0.89584445	      1.12877395	     12.97287965	      2.65779865	    -15.91411658	    -23.07099894	     -0.40266489	      9.65487957	     -2.17300775	      4.30853212	     24.42536664	      6.03335149	      4.14730565	    -62.56307781	     -1.09193170	      7.42151635	     18.67851879	     12.90958531	     -2.45397556	      2.44725891	     -2.74887055	      2.08155127	    -10.49456428	    -18.36071821	     26.03936556	     89.95437384	      0.00000000	      0.00000000	     -1.80732151	      7.83699706	     18.09630693	     30.79818791	     89.95437384	      0.00000000	      0.00000000
      0.74000000	     -2.99111798	     -1.90541259	      3.38816216	     -0.56701786	      0.89654673	      1.12970315	     11.88985256	      2.84101849	    -15.37495344	    -22.40558356	     -0.39105120	     10.03880556	     -1.61768467	      4.10354482	     24.82865543	      5.95521067	      4.55996784	    -61.58258490	     -1.07481887	      8.74093500	     18.76176948	     13.51631271	     -2.78644882	      2.36134670	     -2.31210954	      2.27432954	    -10.56448570	    -18.77111120	     26.43399814	     89.95437384	      0.00000000	      0.00000000	     -1.94739818	      7.75071953	     18.11456044	     30.11477710	     89.95437384	      0.00000000	      0.00000000
      0.75000000	     -2.58056538	     -1.80056156	      3.31195090	     -0.56039763	      0.89749682	      1.13054962	     10.67717656	      2.82789607	    -15.70341353	    -21.86558569	     -0.38162646	     10.10785613	     -0.98183091	      3.63109623	     24.99527021	      5.90405356	      5.05442644	    -60.31782234	     -1.05274460	      9.44212099	     18.79196681	     16.47364215	     -3.27680883	      2.23871640	     -2.02477049	      2.47998980	    -10.57605268	    -19.16752592	     26.84387191	     89.95437384	      0.00000000	      0.00000000	     -2.26914670	      7.74576664	     18.02331940	     29.70936130	     89.95437384	      0.00000000	      0.00000000
